<svg id="svg" version="1.1" xmlns="http://www.w3.org/2000/svg" xmlns:xlink="http://www.w3.org/1999/xlink" width="66.62995594713658" height="55" viewBox="0, 0, 400,330.18181818181813"><g id="svgg"><path id="path0" d="M84.393 26.443 C 83.848 26.626,82.585 26.932,81.585 27.124 C 80.586 27.316,79.305 27.757,78.739 28.105 C 78.172 28.452,77.341 28.737,76.891 28.737 C 75.955 28.737,71.846 31.509,70.657 32.942 C 68.568 35.462,68.100 36.202,66.004 40.297 L 64.905 42.444 64.992 54.215 L 65.080 65.986 63.782 66.505 C 63.068 66.790,62.395 67.168,62.286 67.344 C 62.177 67.520,61.536 67.847,60.862 68.069 C 59.518 68.513,57.076 70.130,54.959 71.977 C 53.611 73.154,50.140 75.065,48.555 75.503 C 48.101 75.628,47.375 76.008,46.941 76.346 C 46.508 76.684,46.009 76.961,45.831 76.961 C 44.938 76.961,42.360 79.706,41.326 81.757 C 38.132 88.093,43.265 97.814,53.179 104.204 C 54.542 105.082,56.400 106.280,57.308 106.866 C 59.475 108.266,63.743 110.611,66.226 111.769 C 67.316 112.277,68.431 112.829,68.704 112.996 C 68.976 113.163,69.422 113.394,69.694 113.511 C 71.431 114.253,72.396 114.738,74.154 115.753 C 75.244 116.382,76.347 116.904,76.605 116.913 C 76.863 116.921,77.309 117.134,77.596 117.385 C 77.883 117.637,79.232 118.308,80.595 118.877 C 81.957 119.446,83.622 120.207,84.293 120.567 C 84.965 120.927,85.771 121.222,86.084 121.222 C 86.397 121.222,86.910 121.455,87.224 121.739 C 87.904 122.354,92.921 124.194,93.927 124.197 C 94.315 124.198,95.078 124.438,95.623 124.729 C 96.168 125.021,97.803 125.455,99.257 125.693 C 100.710 125.932,102.494 126.355,103.220 126.633 C 103.947 126.911,105.136 127.145,105.863 127.153 C 106.590 127.161,108.373 127.396,109.827 127.675 C 111.280 127.954,114.624 128.264,117.258 128.363 C 123.212 128.588,122.964 128.515,122.408 129.878 C 122.164 130.477,121.859 131.697,121.730 132.590 C 121.601 133.483,121.300 134.524,121.061 134.902 C 120.822 135.281,120.518 136.111,120.385 136.746 C 120.252 137.382,119.866 138.421,119.527 139.054 C 119.187 139.687,118.910 140.475,118.910 140.804 C 118.910 141.134,118.687 141.835,118.415 142.362 C 118.142 142.888,117.754 144.107,117.552 145.070 C 117.349 146.033,116.993 147.044,116.759 147.316 C 116.525 147.589,116.176 148.332,115.984 148.968 C 114.790 152.917,113.285 156.493,112.247 157.848 C 111.915 158.281,111.643 158.848,111.643 159.107 C 111.643 160.056,108.939 165.547,107.944 166.619 C 107.617 166.971,107.349 167.390,107.349 167.549 C 107.349 167.709,106.978 168.326,106.524 168.922 C 106.069 169.517,105.698 170.158,105.698 170.346 C 105.698 170.534,105.490 170.859,105.237 171.070 C 104.983 171.280,104.682 171.952,104.568 172.563 C 104.453 173.174,104.148 173.850,103.889 174.064 C 103.631 174.279,103.245 175.000,103.031 175.666 C 101.755 179.652,95.723 188.935,94.410 188.935 C 94.255 188.935,93.307 189.604,92.303 190.421 C 91.299 191.239,90.279 191.908,90.036 191.908 C 89.793 191.908,89.416 192.122,89.199 192.383 C 88.693 192.993,83.973 196.201,83.583 196.201 C 83.420 196.201,82.868 196.548,82.354 196.971 C 81.840 197.394,81.197 197.847,80.925 197.978 C 80.652 198.108,79.835 198.576,79.108 199.018 C 77.646 199.907,76.919 200.255,74.484 201.230 C 71.177 202.554,68.852 203.630,68.110 204.181 C 67.693 204.490,66.923 204.838,66.399 204.953 C 65.875 205.068,65.269 205.376,65.053 205.636 C 64.482 206.324,62.877 206.218,61.801 205.423 C 60.950 204.794,60.506 204.744,56.612 204.845 C 51.034 204.989,50.330 205.450,46.869 211.230 C 45.601 213.347,45.676 220.287,46.986 222.177 C 47.486 222.898,47.898 223.628,47.903 223.800 C 47.919 224.345,50.310 226.732,52.023 227.911 C 52.931 228.536,54.017 229.346,54.436 229.710 C 56.536 231.537,63.736 230.741,66.166 228.413 C 67.023 227.592,67.759 226.920,67.801 226.920 C 67.843 226.920,67.878 229.196,67.878 231.978 L 67.878 237.036 69.187 238.938 C 71.024 241.604,74.400 244.517,76.164 244.957 C 76.693 245.089,77.721 245.466,78.448 245.795 C 82.411 247.590,90.934 246.258,93.599 243.427 C 94.603 242.360,96.119 240.239,96.119 239.902 C 96.119 239.791,96.511 238.872,96.990 237.859 C 97.819 236.106,97.852 235.835,97.674 232.227 C 97.489 228.465,97.644 227.561,98.755 225.929 C 98.940 225.656,99.244 225.062,99.429 224.608 C 99.614 224.154,100.201 223.113,100.732 222.296 C 101.264 221.478,102.041 220.146,102.460 219.336 C 103.694 216.945,103.860 216.680,104.125 216.680 C 104.263 216.680,104.377 216.968,104.377 217.319 C 104.377 217.670,105.045 219.283,105.863 220.904 C 106.680 222.525,107.349 224.078,107.349 224.354 C 107.349 224.631,107.571 225.041,107.842 225.266 C 108.114 225.491,108.489 226.290,108.676 227.041 C 108.864 227.792,109.307 229.326,109.661 230.450 L 110.304 232.494 109.458 234.342 C 108.260 236.959,108.389 242.309,109.717 245.087 C 113.234 252.443,124.642 252.094,128.059 244.526 C 128.371 243.835,128.923 242.931,129.286 242.516 C 130.003 241.696,130.441 236.720,130.002 234.380 C 129.720 232.877,127.843 230.648,125.775 229.361 C 124.045 228.286,123.328 226.901,122.719 223.463 C 122.591 222.742,122.224 221.776,121.903 221.316 C 121.582 220.856,121.229 219.903,121.119 219.199 C 121.010 218.496,120.707 217.678,120.446 217.383 C 120.185 217.087,119.869 216.071,119.742 215.124 C 119.616 214.177,119.228 212.845,118.881 212.164 C 118.533 211.483,118.249 210.618,118.249 210.243 C 118.249 209.868,118.038 209.258,117.779 208.889 C 116.587 207.187,115.943 204.353,116.537 203.422 C 117.282 202.254,119.496 199.594,120.752 198.358 C 122.001 197.129,130.560 187.615,132.052 185.797 C 133.757 183.720,133.774 183.695,133.774 183.359 C 133.774 183.183,134.118 182.620,134.538 182.106 C 134.959 181.593,136.093 179.835,137.059 178.200 C 138.026 176.565,139.015 174.997,139.258 174.716 C 139.501 174.435,140.089 173.469,140.564 172.569 C 141.039 171.669,141.701 170.636,142.036 170.273 C 142.370 169.909,142.742 169.214,142.862 168.728 C 142.983 168.242,143.366 167.587,143.713 167.273 C 144.060 166.959,144.344 166.569,144.344 166.408 C 144.344 165.891,146.607 161.258,146.968 161.035 C 147.160 160.917,147.321 160.568,147.327 160.261 C 147.332 159.954,147.703 158.960,148.149 158.051 C 148.596 157.143,148.963 156.209,148.965 155.975 C 148.966 155.742,149.179 155.221,149.438 154.819 C 149.696 154.417,150.012 153.370,150.140 152.492 C 150.392 150.757,150.979 150.260,151.870 151.025 C 152.181 151.291,152.698 151.603,153.019 151.717 C 153.340 151.831,153.745 152.301,153.921 152.762 C 154.261 153.658,155.751 155.085,157.789 156.466 C 158.478 156.934,159.970 157.964,161.105 158.757 C 162.240 159.550,163.280 160.201,163.417 160.204 C 163.554 160.207,164.295 160.637,165.064 161.158 C 165.833 161.679,167.365 162.375,168.468 162.706 C 170.382 163.279,170.463 163.346,170.209 164.147 C 169.034 167.852,170.198 172.787,172.826 175.246 C 174.899 177.185,180.521 181.599,181.695 182.209 C 185.544 184.210,187.900 185.301,188.368 185.301 C 188.946 185.301,190.439 186.057,194.112 188.208 C 195.416 188.971,196.624 189.595,196.797 189.595 C 196.970 189.595,197.290 189.811,197.509 190.074 C 197.727 190.337,198.451 190.725,199.118 190.935 C 200.292 191.306,202.831 192.408,205.037 193.506 C 206.562 194.264,206.607 194.195,201.239 199.489 C 198.559 202.132,195.010 205.780,193.351 207.597 C 190.831 210.357,190.025 211.024,188.448 211.653 C 181.604 214.382,180.795 222.308,186.956 226.261 C 188.104 226.998,188.580 227.541,188.728 228.283 C 188.840 228.841,189.304 229.740,189.759 230.281 C 190.214 230.822,190.586 231.384,190.586 231.530 C 190.586 232.112,193.722 234.317,194.801 234.494 C 195.630 234.629,196.279 235.078,197.123 236.102 L 198.295 237.522 195.184 240.523 C 193.473 242.173,191.447 243.805,190.683 244.149 C 189.918 244.494,189.210 244.908,189.110 245.071 C 189.009 245.233,188.446 245.472,187.857 245.601 C 187.269 245.730,186.270 246.113,185.637 246.452 C 185.003 246.791,184.314 247.069,184.104 247.069 C 183.894 247.069,183.074 247.363,182.282 247.722 C 181.490 248.081,180.316 248.379,179.673 248.383 C 179.031 248.386,177.944 248.675,177.259 249.025 C 176.575 249.374,175.391 249.763,174.630 249.890 C 173.868 250.017,172.694 250.400,172.020 250.741 C 170.353 251.586,167.392 251.576,166.008 250.720 C 165.436 250.366,164.378 249.931,163.657 249.752 C 162.935 249.573,161.676 249.181,160.859 248.880 C 158.306 247.943,153.429 248.290,151.581 249.541 C 146.415 253.039,143.763 257.499,144.474 261.496 C 144.597 262.190,144.841 263.576,145.015 264.575 C 146.157 271.132,150.487 275.625,157.416 277.444 C 162.262 278.715,165.492 277.291,170.788 271.549 C 174.140 267.913,175.884 266.895,178.808 266.867 C 181.200 266.844,183.211 266.492,185.396 265.713 C 187.003 265.140,187.867 265.304,186.934 266.006 C 186.290 266.489,182.990 270.740,182.988 271.089 C 182.987 271.230,181.909 271.848,180.593 272.461 C 175.142 275.001,172.978 279.979,174.046 287.521 C 174.543 291.031,178.635 295.340,181.975 295.872 C 182.624 295.975,183.715 296.350,184.400 296.704 C 185.992 297.528,191.772 297.400,193.394 296.505 C 193.939 296.204,194.534 295.957,194.716 295.956 C 194.898 295.955,195.721 295.471,196.544 294.880 C 202.081 290.907,202.636 289.802,202.660 282.688 L 202.678 277.515 204.127 275.256 C 204.924 274.014,206.179 272.230,206.917 271.292 C 207.654 270.355,208.994 268.523,209.895 267.222 L 211.532 264.856 211.883 266.615 C 212.076 267.583,212.491 268.742,212.806 269.191 C 213.232 269.798,213.377 270.678,213.377 272.636 C 213.377 274.526,213.554 275.644,214.004 276.609 C 214.348 277.348,214.706 278.844,214.798 279.934 C 214.890 281.024,215.202 282.603,215.492 283.443 L 216.018 284.971 214.698 287.493 C 213.952 288.917,213.376 290.480,213.375 291.085 C 213.374 291.674,213.078 292.601,212.717 293.146 C 211.859 294.442,211.852 296.802,212.699 299.587 C 213.058 300.768,213.439 302.159,213.545 302.679 C 213.653 303.204,214.463 304.329,215.368 305.211 C 222.166 311.832,231.644 310.014,237.760 300.916 L 238.976 299.106 239.092 294.863 C 239.265 288.560,239.146 288.084,236.801 285.739 C 235.276 284.214,234.514 283.706,233.435 283.493 L 232.040 283.218 231.837 279.099 C 231.724 276.804,231.409 274.321,231.126 273.493 C 230.846 272.675,230.514 270.297,230.387 268.208 C 230.240 265.778,229.931 263.815,229.530 262.758 C 229.184 261.850,228.902 260.491,228.902 259.738 C 228.902 258.985,228.667 257.237,228.381 255.852 C 227.766 252.877,228.310 250.601,230.392 247.439 C 231.026 246.477,231.544 245.586,231.544 245.460 C 231.544 245.334,232.181 244.566,232.959 243.755 C 234.206 242.453,234.954 241.419,236.415 238.976 C 237.421 237.292,238.836 234.143,239.035 233.144 C 239.156 232.537,239.526 231.594,239.857 231.049 C 240.189 230.504,240.461 229.835,240.463 229.562 C 240.465 229.290,240.697 228.626,240.978 228.086 C 241.671 226.758,243.435 222.326,243.435 221.915 C 243.435 221.732,243.946 220.517,244.570 219.214 C 245.194 217.912,245.886 216.102,246.109 215.194 C 246.331 214.286,246.787 213.024,247.121 212.391 C 247.456 211.758,247.729 211.015,247.729 210.740 C 247.729 210.224,249.752 208.423,250.332 208.423 C 250.511 208.423,251.956 207.220,253.543 205.749 C 256.005 203.468,258.110 201.833,259.455 201.155 C 261.941 199.902,271.468 191.228,273.163 188.674 L 273.658 187.928 275.475 189.253 C 276.474 189.982,277.640 190.731,278.066 190.917 C 278.493 191.103,279.459 191.755,280.213 192.366 C 280.968 192.977,282.031 193.723,282.576 194.024 C 283.121 194.325,284.236 194.955,285.054 195.424 C 286.683 196.359,290.824 198.446,296.449 201.168 C 298.448 202.135,300.306 203.109,300.578 203.332 C 300.851 203.555,301.668 203.896,302.395 204.090 C 303.121 204.284,304.305 204.744,305.024 205.112 C 305.744 205.479,306.636 205.785,307.006 205.792 C 307.377 205.798,308.274 206.090,309.001 206.441 C 309.727 206.792,310.514 207.084,310.749 207.090 C 311.887 207.120,315.281 209.083,314.194 209.083 C 312.277 209.083,291.724 228.604,290.641 231.453 C 290.483 231.867,290.240 232.209,290.099 232.214 C 282.221 232.508,278.355 237.724,280.398 245.303 C 281.101 247.909,285.965 251.693,288.613 251.693 C 288.807 251.693,289.140 252.219,289.352 252.863 C 289.787 254.180,293.129 257.969,293.856 257.969 C 294.116 257.969,294.911 258.266,295.623 258.629 C 296.390 259.020,297.570 259.290,298.516 259.290 C 299.944 259.290,300.250 259.430,301.399 260.606 C 303.044 262.291,304.372 262.722,307.845 262.701 C 313.493 262.665,316.379 260.689,317.940 255.786 C 318.438 254.223,319.159 252.625,319.544 252.236 C 320.538 251.229,330.701 238.728,331.295 237.781 C 331.567 237.348,334.019 234.759,336.745 232.028 C 341.512 227.251,345.532 222.748,347.202 220.314 C 347.990 219.166,352.822 214.479,356.663 211.138 C 357.765 210.178,359.297 208.469,360.066 207.339 C 360.835 206.209,362.261 204.452,363.236 203.435 C 364.880 201.718,366.969 198.813,366.969 198.245 C 366.969 198.110,367.229 197.632,367.545 197.183 C 369.295 194.703,370.104 189.092,369.117 186.294 C 368.677 185.047,368.677 184.728,369.117 183.433 C 369.796 181.433,369.792 171.837,369.111 168.621 C 368.841 167.349,368.614 165.343,368.606 164.162 C 368.599 162.981,368.359 161.420,368.075 160.694 C 367.791 159.967,367.380 158.035,367.162 156.400 C 366.944 154.765,366.526 152.907,366.233 152.271 C 365.940 151.635,365.261 150.095,364.725 148.849 C 364.189 147.602,363.535 146.330,363.271 146.022 C 363.007 145.714,362.075 144.430,361.200 143.169 C 357.837 138.323,350.665 130.478,346.402 126.981 L 345.168 125.969 346.332 125.414 C 347.747 124.740,348.142 123.797,348.142 121.099 C 348.142 118.551,347.496 117.740,344.031 115.935 C 343.476 115.646,342.725 115.248,342.362 115.050 C 341.004 114.311,338.048 112.964,337.782 112.964 C 337.630 112.964,336.220 112.354,334.649 111.607 C 333.078 110.860,331.718 110.253,331.627 110.258 C 331.536 110.262,331.263 110.101,331.019 109.899 C 330.673 109.612,330.601 109.667,330.689 110.156 C 330.887 111.263,327.711 112.220,326.815 111.324 C 326.474 110.983,322.717 109.638,319.750 108.796 C 315.787 107.670,313.620 105.874,313.850 103.905 C 313.969 102.889,313.893 102.725,313.307 102.725 C 312.933 102.725,311.439 102.134,309.988 101.412 C 308.537 100.690,307.126 100.091,306.854 100.081 C 306.581 100.070,305.615 99.696,304.707 99.250 C 303.799 98.803,302.828 98.436,302.551 98.434 C 302.273 98.432,301.753 98.228,301.395 97.980 C 301.036 97.732,300.372 97.419,299.917 97.285 C 299.463 97.151,298.497 96.776,297.770 96.451 C 297.044 96.126,296.098 95.727,295.669 95.564 L 294.889 95.267 295.756 94.236 C 296.233 93.669,296.851 92.709,297.129 92.102 C 297.408 91.496,298.368 89.810,299.264 88.357 C 300.159 86.903,301.057 85.343,301.258 84.889 C 301.459 84.434,301.940 83.468,302.327 82.742 C 303.273 80.966,303.505 75.354,302.743 72.667 C 302.460 71.668,301.996 69.992,301.712 68.942 C 301.234 67.177,300.477 65.834,297.326 61.163 C 296.071 59.303,290.858 54.321,289.182 53.379 C 288.637 53.073,287.597 52.464,286.870 52.026 C 286.144 51.587,285.326 51.131,285.054 51.012 C 284.781 50.892,283.815 50.456,282.907 50.041 C 279.541 48.505,277.196 47.564,276.735 47.564 C 276.475 47.564,275.973 47.343,275.621 47.074 C 275.268 46.804,274.385 46.422,273.658 46.225 C 272.223 45.834,270.071 44.933,268.143 43.915 C 267.471 43.560,266.501 43.270,265.987 43.270 C 265.473 43.270,264.736 43.049,264.350 42.778 C 263.964 42.508,262.779 42.078,261.716 41.824 C 260.654 41.570,259.339 41.124,258.794 40.832 C 258.249 40.540,257.387 40.300,256.879 40.299 C 256.370 40.298,255.530 40.078,255.011 39.810 C 254.493 39.542,252.976 39.156,251.642 38.952 C 250.307 38.749,248.366 38.300,247.327 37.954 C 246.288 37.608,244.992 37.325,244.447 37.325 C 243.902 37.325,242.824 36.995,242.051 36.593 C 239.670 35.351,231.056 35.475,228.460 36.788 L 226.580 37.738 225.329 36.871 C 224.640 36.394,223.857 36.003,223.588 36.003 C 223.319 36.003,222.268 35.711,221.253 35.355 C 220.232 34.996,217.656 34.552,215.484 34.362 C 213.326 34.172,210.892 33.867,210.074 33.682 C 209.257 33.498,206.031 33.254,202.906 33.141 L 197.224 32.936 195.309 33.888 C 191.807 35.630,187.783 39.369,187.411 41.227 C 187.117 42.697,185.930 43.648,184.138 43.850 C 183.294 43.945,182.777 44.130,182.990 44.261 C 183.242 44.417,183.137 44.562,182.687 44.680 C 182.225 44.800,181.998 44.704,181.998 44.385 C 181.998 44.124,181.738 43.818,181.420 43.707 C 181.102 43.595,180.471 43.173,180.017 42.769 C 179.562 42.365,178.745 41.934,178.200 41.812 C 177.655 41.691,176.614 41.314,175.888 40.976 C 172.256 39.285,171.457 39.001,169.777 38.803 C 168.778 38.685,167.291 38.383,166.474 38.130 C 163.693 37.272,149.135 37.322,147.125 38.198 C 146.231 38.587,144.401 39.325,143.059 39.837 C 141.717 40.350,140.253 41.057,139.806 41.409 C 139.115 41.952,138.590 42.028,136.301 41.916 C 128.848 41.550,119.580 41.865,117.654 42.550 C 116.619 42.919,114.836 43.304,113.692 43.407 C 112.549 43.509,111.352 43.733,111.032 43.904 C 110.282 44.306,109.817 43.984,109.546 42.879 C 108.570 38.889,100.854 31.062,95.706 28.841 C 95.025 28.547,94.467 28.186,94.467 28.040 C 94.467 27.059,86.380 25.778,84.393 26.443 M89.471 33.401 C 90.010 33.833,91.389 34.707,92.537 35.343 C 96.519 37.548,102.461 44.209,102.526 46.539 C 102.597 49.047,100.468 47.999,99.914 45.252 C 99.391 42.656,95.506 37.655,94.014 37.655 C 92.683 37.655,92.811 38.810,94.523 42.230 C 96.966 47.112,96.995 48.073,94.747 49.546 C 92.367 51.104,92.135 52.714,94.302 52.636 C 99.620 52.444,110.187 50.897,115.442 49.542 C 119.557 48.480,130.406 47.767,133.530 48.353 C 135.588 48.739,135.357 50.913,133.078 52.595 C 132.520 53.007,131.531 54.310,130.880 55.491 C 130.229 56.672,129.132 58.456,128.443 59.455 C 126.657 62.044,126.298 63.216,126.976 64.250 C 128.286 66.250,130.414 64.000,135.257 55.491 C 139.835 47.448,142.416 45.322,149.920 43.415 C 154.403 42.276,168.205 43.267,172.089 45.007 C 173.088 45.455,174.585 46.066,175.414 46.366 C 178.870 47.616,183.648 55.959,183.191 59.946 C 183.036 61.294,183.189 62.075,184.030 64.240 C 185.448 67.890,185.752 73.530,184.676 76.230 C 183.269 79.762,183.938 82.002,186.522 82.406 C 187.213 82.514,188.448 82.955,189.265 83.387 C 191.434 84.533,194.826 85.755,197.059 86.197 C 204.253 87.620,204.947 88.806,204.733 99.317 C 204.592 106.238,204.273 107.329,199.396 117.577 C 196.663 123.321,187.546 132.333,180.182 136.569 C 178.365 137.614,176.730 138.585,176.548 138.727 C 173.120 141.411,170.325 141.782,167.221 139.964 C 161.209 136.442,153.774 131.564,150.929 129.276 C 149.214 127.898,146.957 126.337,145.912 125.808 C 143.744 124.709,143.623 124.354,145.004 123.142 C 147.707 120.770,145.181 118.229,140.845 118.958 C 137.965 119.442,137.588 119.242,137.290 117.072 C 136.913 114.319,131.055 106.761,128.467 105.689 C 127.479 105.280,127.254 104.799,127.092 102.758 C 126.876 100.044,124.512 99.712,117.424 101.397 C 113.789 102.261,112.241 102.447,107.349 102.605 C 101.361 102.798,100.087 102.676,91.825 101.117 C 89.917 100.757,85.756 100.152,82.576 99.771 C 75.911 98.974,71.475 98.086,64.740 96.199 C 57.748 94.241,56.622 93.670,52.450 89.968 C 51.307 88.954,49.703 87.824,48.885 87.457 C 44.952 85.690,45.685 82.376,50.398 80.613 C 53.438 79.475,55.882 78.073,58.464 75.985 C 59.827 74.882,62.428 73.218,64.244 72.285 C 68.677 70.010,71.364 68.249,75.934 64.624 C 81.965 59.841,82.256 59.635,85.110 58.161 C 88.453 56.433,89.022 54.500,86.187 54.500 C 84.758 54.500,75.310 60.210,75.310 61.074 C 75.310 61.634,72.899 64.079,72.347 64.079 C 71.396 64.079,71.346 63.558,71.346 53.651 C 71.346 42.498,71.690 41.145,75.606 36.885 C 78.729 33.488,86.990 31.412,89.471 33.401 M213.936 40.427 C 215.695 41.047,220.933 41.704,223.022 41.565 C 225.579 41.396,225.052 43.499,222.121 45.159 C 220.453 46.103,220.520 46.116,220.039 44.785 C 219.539 43.403,218.603 43.029,214.911 42.736 C 211.403 42.458,210.074 41.929,210.074 40.810 C 210.074 39.800,211.703 39.639,213.936 40.427 M184.660 46.014 C 185.775 48.205,192.324 49.355,200.069 48.720 C 204.115 48.389,204.576 48.927,204.410 53.789 C 204.295 57.148,204.229 57.430,203.121 59.300 C 201.382 62.237,200.936 62.182,196.916 58.529 C 192.472 54.492,192.260 54.369,190.220 54.639 C 187.449 55.007,184.809 53.020,183.013 49.216 C 181.994 47.058,181.713 45.401,182.331 45.197 C 183.477 44.817,184.176 45.062,184.660 46.014 M156.895 45.605 C 147.483 46.841,142.088 53.585,138.416 68.704 C 136.301 77.414,137.772 83.272,143.518 89.017 C 148.734 94.233,152.555 95.582,162.197 95.608 L 167.994 95.623 170.124 94.533 C 177.044 90.991,182.157 84.243,182.851 77.739 C 182.965 76.675,183.265 75.072,183.519 74.176 C 184.109 72.092,184.113 68.117,183.525 66.679 C 183.275 66.067,182.965 64.822,182.836 63.914 C 182.696 62.923,182.173 61.602,181.530 60.611 C 180.940 59.703,179.885 57.725,179.185 56.215 C 175.866 49.057,166.079 44.399,156.895 45.605 M217.919 46.121 C 220.318 46.374,220.244 46.238,219.055 48.188 C 218.544 49.026,217.875 50.346,217.568 51.121 C 215.771 55.667,214.712 55.929,214.704 51.828 C 214.701 50.449,214.483 48.603,214.218 47.725 C 213.654 45.849,213.805 45.452,214.985 45.712 C 215.463 45.817,216.784 46.001,217.919 46.121 M255.073 46.374 C 256.575 46.809,258.324 47.386,258.960 47.657 C 259.595 47.928,262.791 49.039,266.061 50.126 C 278.598 54.294,283.150 56.529,288.192 60.991 C 294.170 66.281,297.133 71.857,296.092 75.856 C 295.834 76.845,295.620 78.278,295.616 79.042 C 295.601 81.878,293.801 84.253,290.244 86.128 L 288.522 87.036 279.934 86.968 C 272.711 86.911,270.874 86.795,268.373 86.236 C 266.738 85.871,263.245 85.259,260.611 84.875 C 252.127 83.640,252.191 83.699,254.337 79.080 C 257.340 72.615,259.041 62.961,257.766 59.620 C 257.488 58.893,257.021 57.593,256.726 56.730 C 256.432 55.868,255.618 54.468,254.918 53.621 C 253.614 52.043,251.363 47.585,251.363 46.582 C 251.363 45.371,251.574 45.359,255.073 46.374 M164.947 50.658 C 170.292 52.355,174.421 55.676,175.574 59.203 C 175.887 60.159,176.351 61.354,176.606 61.858 C 177.464 63.555,178.695 70.017,178.695 72.823 C 178.695 80.726,175.667 86.398,169.676 89.718 L 167.960 90.669 161.354 90.669 C 153.711 90.669,153.585 90.631,148.967 86.940 C 143.619 82.666,141.553 76.809,143.331 70.968 C 143.682 69.813,144.076 68.274,144.207 67.547 C 144.337 66.821,144.699 65.626,145.013 64.892 C 145.326 64.158,145.692 63.043,145.827 62.415 C 146.067 61.296,146.263 60.850,148.136 57.143 C 151.244 50.994,157.909 48.423,164.947 50.658 M292.702 52.993 C 292.764 53.296,292.964 53.537,293.146 53.527 C 293.636 53.501,293.546 52.762,293.032 52.591 C 292.754 52.498,292.630 52.649,292.702 52.993 M257.816 54.701 C 257.084 55.432,257.591 55.963,259.812 56.794 C 260.792 57.161,262.634 57.984,263.903 58.624 C 266.677 60.021,270.563 61.590,273.493 62.498 C 276.625 63.468,277.660 64.079,280.564 66.673 C 283.563 69.351,284.647 69.877,285.682 69.152 C 288.588 67.116,283.212 62.401,274.484 59.329 C 271.668 58.338,267.283 56.777,264.740 55.860 C 259.761 54.064,258.640 53.876,257.816 54.701 M157.391 56.760 C 152.425 59.137,149.696 68.566,152.490 73.698 C 156.435 80.946,165.471 79.596,169.323 71.183 C 172.792 63.606,164.366 53.422,157.391 56.760 M240.890 60.206 C 242.946 61.554,240.512 70.892,237.333 73.859 C 233.587 77.353,233.114 77.213,226.308 70.588 C 221.088 65.507,220.637 65.152,217.423 63.595 C 213.054 61.477,212.549 60.307,215.766 59.754 C 218.994 59.199,239.930 59.576,240.890 60.206 M159.336 62.476 C 159.772 63.098,160.041 63.160,161.539 62.982 C 166.959 62.341,168.641 70.019,163.736 73.009 C 161.470 74.391,159.630 73.642,158.387 70.832 L 157.603 69.059 155.978 69.252 C 153.109 69.592,151.653 66.892,154.143 65.851 C 155.381 65.334,155.812 65.418,157.327 66.472 C 157.830 66.821,158.001 66.785,158.401 66.246 C 159.136 65.256,158.989 64.236,158.051 63.809 C 157.276 63.456,156.952 62.481,157.446 61.987 C 157.893 61.540,158.854 61.788,159.336 62.476 M286.779 97.077 C 287.556 97.422,289.381 98.233,290.834 98.880 C 292.287 99.526,294.213 100.217,295.112 100.415 C 296.012 100.614,297.275 101.053,297.920 101.392 C 299.848 102.405,308.578 106.403,309.878 106.867 C 310.542 107.104,312.127 107.755,313.401 108.314 C 314.675 108.874,316.041 109.331,316.437 109.331 C 316.833 109.331,317.566 109.623,318.067 109.979 C 318.950 110.608,320.864 111.402,326.012 113.276 C 327.374 113.771,329.232 114.573,330.140 115.056 C 331.049 115.540,332.632 116.311,333.659 116.771 C 337.023 118.276,336.591 119.603,332.941 118.977 C 331.666 118.759,330.274 118.580,329.847 118.580 C 328.923 118.580,325.777 117.600,323.699 116.666 C 319.072 114.585,316.560 113.600,315.405 113.416 C 314.690 113.301,314.026 113.079,313.929 112.921 C 313.712 112.571,312.135 112.536,312.148 112.882 C 312.162 113.236,317.453 116.788,318.426 117.096 C 321.326 118.013,321.371 119.060,318.531 119.555 C 317.323 119.765,315.769 120.226,315.076 120.580 C 312.916 121.681,311.057 121.230,311.160 119.630 C 311.258 118.120,311.173 117.912,310.318 117.587 C 309.772 117.380,308.944 117.397,307.895 117.640 C 305.780 118.128,304.419 117.547,304.286 116.100 C 304.029 113.295,304.256 113.387,299.487 114.159 C 297.317 114.510,295.354 113.532,295.229 112.038 C 295.096 110.441,293.930 109.800,292.069 110.301 C 289.798 110.912,286.746 109.538,285.905 107.525 C 285.396 106.306,285.260 106.255,282.775 106.356 C 280.896 106.432,278.826 105.509,278.568 104.481 C 278.236 103.157,277.266 102.737,275.013 102.942 C 273.322 103.095,272.909 103.025,272.448 102.512 C 269.862 99.631,269.964 99.696,268.397 99.931 C 266.305 100.245,263.976 97.877,265.813 97.305 C 267.391 96.813,275.650 97.664,277.627 98.521 C 278.714 98.993,279.975 99.481,280.429 99.605 C 280.884 99.729,281.478 100.008,281.751 100.225 C 282.023 100.442,283.361 101.047,284.723 101.569 C 286.086 102.091,287.433 102.711,287.718 102.948 C 288.002 103.184,288.745 103.549,289.369 103.759 C 289.993 103.968,290.727 104.327,290.999 104.557 C 291.440 104.927,294.243 106.304,301.734 109.830 C 307.601 112.590,307.820 112.671,308.507 112.303 C 310.055 111.475,309.046 110.094,305.997 108.869 C 302.279 107.375,298.088 105.492,294.850 103.861 C 293.970 103.418,293.088 103.055,292.890 103.055 C 292.691 103.055,291.925 102.771,291.186 102.423 C 290.447 102.075,289.026 101.470,288.026 101.079 C 287.027 100.688,285.838 100.163,285.384 99.911 C 284.930 99.660,284.001 99.147,283.320 98.771 C 280.346 97.130,283.463 95.604,286.779 97.077 M228.669 97.957 C 230.705 98.605,233.262 99.435,234.352 99.802 C 236.953 100.679,246.808 103.157,250.372 103.831 C 253.891 104.496,258.157 105.869,259.455 106.755 C 262.433 108.787,267.176 116.425,269.687 123.236 C 269.928 123.890,270.419 125.004,270.777 125.713 C 272.160 128.446,273.852 133.849,274.333 137.069 C 274.610 138.919,275.049 141.248,275.308 142.244 C 275.568 143.241,275.695 144.529,275.590 145.108 C 275.157 147.507,274.015 150.880,273.163 152.271 C 272.663 153.088,271.997 154.449,271.684 155.295 C 271.252 156.461,270.605 157.247,269.009 158.542 C 266.364 160.688,264.151 163.605,263.586 165.692 C 262.840 168.449,262.172 168.602,255.136 167.625 C 250.693 167.008,250.125 166.642,249.380 163.920 C 248.636 161.203,247.100 158.754,244.086 155.482 C 242.710 153.988,240.726 151.682,239.677 150.358 C 233.549 142.620,223.118 134.774,221.140 136.416 C 220.273 137.135,220.538 138.345,221.718 139.048 C 227.198 142.318,232.454 146.918,236.829 152.271 C 238.239 153.997,240.577 156.700,242.026 158.278 C 243.474 159.856,244.839 161.640,245.060 162.242 C 245.280 162.844,245.766 164.079,246.138 164.988 C 247.418 168.108,247.543 168.896,247.142 171.313 C 246.935 172.557,246.606 175.136,246.411 177.044 C 245.852 182.497,245.576 184.275,244.821 187.283 C 244.434 188.827,243.949 191.874,243.743 194.055 C 243.537 196.235,243.170 198.687,242.927 199.505 C 242.684 200.322,242.329 202.045,242.139 203.333 C 241.949 204.621,241.562 206.231,241.278 206.911 C 240.994 207.590,240.334 209.807,239.812 211.835 C 239.290 213.864,238.560 216.268,238.189 217.176 C 237.818 218.084,236.819 220.611,235.968 222.791 C 235.116 224.971,234.313 226.903,234.181 227.085 C 234.050 227.267,233.751 228.009,233.517 228.735 C 232.445 232.058,230.157 236.443,225.455 244.186 C 224.404 245.917,223.261 248.419,222.617 250.398 L 221.539 253.711 222.079 256.748 C 222.376 258.419,222.761 260.528,222.936 261.437 C 223.110 262.345,223.640 265.318,224.114 268.043 C 224.588 270.768,225.123 273.592,225.304 274.319 C 225.485 275.045,225.825 277.823,226.059 280.491 C 226.561 286.189,226.695 286.472,229.853 288.496 C 232.635 290.280,233.333 291.523,233.129 294.336 C 232.759 299.451,226.230 304.254,223.228 301.619 C 219.271 298.144,219.143 294.578,222.835 290.600 C 224.486 288.821,224.701 287.306,223.802 283.780 C 223.541 282.755,223.179 280.578,222.998 278.943 C 222.818 277.308,222.437 275.418,222.153 274.742 C 221.868 274.067,221.635 273.231,221.635 272.885 C 221.635 272.539,221.105 270.507,220.457 268.370 C 219.810 266.234,219.134 263.131,218.956 261.475 C 218.508 257.313,218.175 256.441,216.648 255.431 C 212.723 252.833,209.518 255.803,197.962 272.748 C 195.797 275.923,195.427 277.652,196.326 280.399 C 197.893 285.191,193.972 290.304,188.709 290.331 C 181.477 290.369,181.424 281.918,188.630 278.077 C 190.754 276.945,192.550 274.882,194.826 270.959 C 195.582 269.657,196.582 268.137,197.049 267.582 C 198.978 265.290,205.450 254.502,205.450 253.580 C 205.450 250.216,202.811 248.885,200.042 250.853 C 199.159 251.482,197.673 252.248,196.740 252.555 C 195.808 252.863,193.893 253.598,192.485 254.190 C 191.076 254.782,188.326 255.737,186.374 256.313 C 184.422 256.889,182.155 257.628,181.338 257.956 C 180.520 258.283,177.919 259.034,175.557 259.625 C 170.441 260.905,168.984 261.580,168.251 263.009 C 164.545 270.234,160.481 272.131,155.725 268.859 C 152.347 266.535,151.853 263.645,154.264 260.317 C 156.233 257.600,160.247 256.918,164.492 258.579 C 166.721 259.451,167.336 259.459,170.084 258.654 C 171.278 258.304,173.778 257.702,175.640 257.315 C 177.502 256.928,180.252 256.240,181.751 255.786 C 183.250 255.332,185.442 254.669,186.623 254.313 C 187.803 253.957,189.375 253.667,190.115 253.670 C 191.431 253.675,196.219 251.618,198.427 250.101 C 198.929 249.755,200.420 248.839,201.740 248.064 C 206.412 245.322,213.807 235.910,217.158 228.440 C 217.573 227.513,218.663 225.194,219.579 223.287 C 220.494 221.379,221.348 219.149,221.476 218.332 C 221.604 217.514,221.924 216.325,222.186 215.690 C 222.448 215.054,222.881 212.750,223.148 210.570 C 223.415 208.390,223.783 206.143,223.967 205.577 C 224.150 205.010,224.436 203.450,224.603 202.108 C 224.769 200.767,225.060 198.704,225.250 197.523 C 225.789 194.155,226.303 179.356,225.964 176.959 C 224.569 167.108,218.291 156.646,214.521 157.890 C 213.679 158.168,213.086 158.171,212.272 157.903 C 211.012 157.487,210.304 157.673,208.975 158.768 C 207.165 160.260,200.451 158.521,192.995 154.628 C 188.258 152.154,187.942 152.828,197.203 145.665 C 204.033 140.382,209.858 134.303,213.259 128.907 C 215.817 124.849,220.818 114.543,221.476 111.974 C 221.778 110.793,222.248 109.306,222.520 108.671 C 223.210 107.054,223.944 102.350,223.946 99.532 C 223.947 97.375,224.068 97.019,224.871 96.806 C 224.925 96.791,226.634 97.309,228.669 97.957 M283.251 114.773 C 284.268 115.223,286.465 116.362,288.133 117.304 C 294.305 120.790,298.502 122.972,301.130 124.061 C 302.614 124.676,305.380 125.917,307.275 126.817 C 314.159 130.088,317.858 130.775,323.534 129.835 C 324.806 129.625,327.210 129.252,328.876 129.007 C 331.252 128.658,332.166 128.363,333.108 127.644 C 333.770 127.140,334.723 126.727,335.227 126.727 C 338.531 126.727,353.954 141.617,356.413 147.181 C 356.807 148.073,357.555 149.694,358.074 150.784 C 359.789 154.382,361.663 162.042,361.678 165.513 C 361.682 166.347,361.969 168.428,362.316 170.137 C 363.098 173.984,363.412 178.281,363.086 180.677 L 362.839 182.494 359.678 182.377 C 352.971 182.130,352.455 186.465,358.980 188.239 C 363.146 189.371,363.628 190.595,361.347 194.242 C 360.617 195.411,359.559 197.291,358.998 198.421 C 358.010 200.409,352.620 206.791,350.568 208.403 C 347.630 210.711,339.399 219.495,335.131 224.878 C 334.076 226.208,333.011 227.373,332.763 227.469 C 331.805 227.836,323.758 236.847,321.737 239.815 C 320.567 241.534,318.152 244.621,316.371 246.676 C 314.589 248.732,313.047 250.813,312.943 251.301 C 312.217 254.704,310.376 256.593,308.113 256.256 C 305.659 255.890,306.521 253.253,310.301 249.563 C 313.331 246.605,325.748 231.372,326.792 229.331 C 327.898 227.169,327.151 225.512,324.876 225.085 C 322.837 224.703,322.164 225.144,317.503 229.920 C 315.016 232.469,311.820 235.470,310.400 236.588 C 308.979 237.707,307.198 239.445,306.441 240.451 C 305.684 241.456,304.427 242.963,303.648 243.799 C 302.553 244.973,302.156 245.715,301.900 247.062 C 301.338 250.026,299.550 252.204,297.875 251.966 C 295.846 251.677,296.128 247.881,298.279 246.518 C 300.449 245.144,301.652 243.955,304.054 240.810 C 307.175 236.725,309.567 233.814,313.563 229.235 C 315.345 227.193,317.147 224.982,317.566 224.322 C 318.613 222.674,319.357 222.069,321.073 221.468 C 321.882 221.184,323.658 220.447,325.021 219.830 C 326.383 219.212,328.538 218.311,329.810 217.828 C 339.277 214.232,340.304 213.255,338.394 209.667 C 337.693 208.349,337.596 207.837,337.771 206.353 C 338.133 203.276,335.846 201.464,330.519 200.607 C 328.880 200.343,327.444 200.069,327.328 199.997 C 327.212 199.926,325.384 199.414,323.265 198.860 C 315.044 196.711,310.250 194.817,303.999 191.250 C 302.702 190.509,299.823 189.164,297.602 188.260 C 295.381 187.355,291.274 185.428,288.475 183.977 C 282.879 181.075,281.726 180.818,279.545 181.987 L 278.333 182.637 277.041 181.911 C 274.455 180.457,270.790 176.173,269.438 173.023 C 266.335 165.794,268.925 160.714,276.829 158.526 C 281.654 157.190,283.352 156.945,291.329 156.434 C 314.470 154.950,328.533 155.692,332.394 158.600 C 336.380 161.601,340.053 160.905,338.887 157.370 C 338.246 155.430,336.464 154.844,326.837 153.411 C 316.052 151.805,316.124 151.808,301.734 152.191 C 286.475 152.597,286.995 152.667,288.072 150.340 C 289.254 147.782,290.192 140.609,289.712 137.799 C 289.536 136.766,289.224 134.689,289.020 133.183 C 288.592 130.026,286.705 124.951,284.574 121.222 C 281.916 116.575,280.717 113.955,281.246 113.955 C 281.331 113.955,282.234 114.324,283.251 114.773 M342.542 120.916 C 343.043 121.727,342.097 122.648,339.201 124.168 C 336.137 125.777,335.360 125.918,326.507 126.473 C 323.964 126.633,321.174 126.947,320.309 127.171 C 315.464 128.426,312.263 126.129,315.607 123.796 C 317.297 122.617,320.017 122.131,330.025 121.216 C 331.960 121.039,333.893 120.765,334.319 120.607 C 335.625 120.122,342.204 120.370,342.542 120.916 M82.453 213.790 C 82.159 214.199,81.675 214.979,81.377 215.524 C 81.078 216.069,80.260 217.241,79.558 218.127 C 78.857 219.014,78.282 219.926,78.282 220.154 C 78.282 220.391,77.662 220.662,76.839 220.786 C 76.045 220.905,74.824 221.293,74.126 221.649 C 73.429 222.005,72.629 222.296,72.350 222.296 C 71.717 222.297,70.328 223.485,69.540 224.701 C 68.541 226.241,68.545 225.402,69.547 222.911 C 70.296 221.051,70.710 220.453,71.500 220.090 C 72.051 219.836,73.171 219.189,73.988 218.651 C 74.806 218.113,75.935 217.458,76.497 217.194 C 77.060 216.930,78.282 216.112,79.213 215.376 C 80.144 214.640,81.040 214.038,81.205 214.038 C 81.370 214.038,81.690 213.815,81.916 213.543 C 82.571 212.753,83.043 212.970,82.453 213.790 M297.929 235.935 C 295.035 238.746,292.876 241.335,292.036 243.000 C 290.787 245.476,288.734 246.155,287.186 244.606 C 285.196 242.617,286.529 240.457,290.253 239.633 C 293.575 238.897,294.125 238.593,296.781 236.014 C 298.003 234.827,299.243 233.856,299.536 233.856 C 299.856 233.856,299.213 234.687,297.929 235.935 " stroke="none" fill="#50401a" fill-rule="evenodd"></path><path id="path1" d="M83.091 33.055 C 77.575 34.423,73.873 37.618,71.955 42.664 C 71.342 44.278,70.993 62.115,71.546 63.557 C 71.967 64.653,75.310 62.447,75.310 61.074 C 75.310 60.210,84.758 54.500,86.187 54.500 C 89.022 54.500,88.453 56.433,85.110 58.161 C 82.256 59.635,81.965 59.841,75.934 64.624 C 71.364 68.249,68.677 70.010,64.244 72.285 C 62.428 73.218,59.827 74.882,58.464 75.985 C 55.882 78.073,53.438 79.475,50.398 80.613 C 45.685 82.376,44.952 85.690,48.885 87.457 C 49.703 87.824,51.307 88.954,52.450 89.968 C 56.622 93.670,57.748 94.241,64.740 96.199 C 71.475 98.086,75.911 98.974,82.576 99.771 C 85.756 100.152,89.917 100.757,91.825 101.117 C 100.087 102.676,101.361 102.798,107.349 102.605 C 112.241 102.447,113.789 102.261,117.424 101.397 C 124.512 99.712,126.876 100.044,127.092 102.758 C 127.254 104.799,127.479 105.280,128.467 105.689 C 131.055 106.761,136.913 114.319,137.290 117.072 C 137.588 119.242,137.965 119.442,140.845 118.958 C 145.181 118.229,147.707 120.770,145.004 123.142 C 143.623 124.354,143.744 124.709,145.912 125.808 C 146.957 126.337,149.214 127.898,150.929 129.276 C 153.774 131.564,161.209 136.442,167.221 139.964 C 170.325 141.782,173.120 141.411,176.548 138.727 C 176.730 138.585,178.365 137.614,180.182 136.569 C 187.546 132.333,196.663 123.321,199.396 117.577 C 204.273 107.329,204.592 106.238,204.733 99.317 C 204.947 88.806,204.253 87.620,197.059 86.197 C 194.826 85.755,191.434 84.533,189.265 83.387 C 188.448 82.955,187.213 82.514,186.522 82.406 C 183.938 82.002,183.269 79.762,184.676 76.230 C 185.752 73.530,185.448 67.890,184.030 64.240 C 183.189 62.075,183.036 61.294,183.191 59.946 C 183.648 55.959,178.870 47.616,175.414 46.366 C 174.585 46.066,173.088 45.455,172.089 45.007 C 168.205 43.267,154.403 42.276,149.920 43.415 C 142.416 45.322,139.835 47.448,135.257 55.491 C 130.414 64.000,128.286 66.250,126.976 64.250 C 126.298 63.216,126.657 62.044,128.443 59.455 C 129.132 58.456,130.229 56.672,130.880 55.491 C 131.531 54.310,132.520 53.007,133.078 52.595 C 135.357 50.913,135.588 48.739,133.530 48.353 C 130.406 47.767,119.557 48.480,115.442 49.542 C 110.187 50.897,99.620 52.444,94.302 52.636 C 92.135 52.714,92.367 51.104,94.747 49.546 C 96.995 48.073,96.966 47.112,94.523 42.230 C 92.811 38.810,92.683 37.655,94.014 37.655 C 95.506 37.655,99.391 42.656,99.914 45.252 C 100.468 47.999,102.597 49.047,102.526 46.539 C 102.461 44.209,96.519 37.548,92.537 35.343 C 91.389 34.707,90.010 33.833,89.471 33.401 C 88.164 32.354,86.321 32.254,83.091 33.055 M210.074 40.810 C 210.074 41.929,211.403 42.458,214.911 42.736 C 218.603 43.029,219.539 43.403,220.039 44.785 C 220.520 46.116,220.453 46.103,222.121 45.159 C 225.052 43.499,225.579 41.396,223.022 41.565 C 220.933 41.704,215.695 41.047,213.936 40.427 C 211.703 39.639,210.074 39.800,210.074 40.810 M182.331 45.197 C 181.713 45.401,181.994 47.058,183.013 49.216 C 184.809 53.020,187.449 55.007,190.220 54.639 C 192.260 54.369,192.472 54.492,196.916 58.529 C 200.936 62.182,201.382 62.237,203.121 59.300 C 204.229 57.430,204.295 57.148,204.410 53.789 C 204.576 48.927,204.115 48.389,200.069 48.720 C 192.324 49.355,185.775 48.205,184.660 46.014 C 184.176 45.062,183.477 44.817,182.331 45.197 M164.572 45.951 C 171.064 47.046,176.802 51.076,179.185 56.215 C 179.885 57.725,180.940 59.703,181.530 60.611 C 182.173 61.602,182.696 62.923,182.836 63.914 C 182.965 64.822,183.275 66.067,183.525 66.679 C 184.113 68.117,184.109 72.092,183.519 74.176 C 183.265 75.072,182.965 76.675,182.851 77.739 C 182.157 84.243,177.044 90.991,170.124 94.533 L 167.994 95.623 162.197 95.608 C 152.555 95.582,148.734 94.233,143.518 89.017 C 137.772 83.272,136.301 77.414,138.416 68.704 C 142.940 50.075,150.423 43.566,164.572 45.951 M213.927 45.825 C 213.823 45.993,213.954 46.848,214.218 47.725 C 214.483 48.603,214.701 50.449,214.704 51.828 C 214.712 55.929,215.771 55.667,217.568 51.121 C 217.875 50.346,218.544 49.026,219.055 48.188 C 220.244 46.238,220.318 46.374,217.919 46.121 C 216.784 46.001,215.463 45.817,214.985 45.712 C 214.507 45.606,214.031 45.657,213.927 45.825 M251.583 45.802 C 250.895 46.490,252.890 51.167,254.918 53.621 C 255.618 54.468,256.432 55.868,256.726 56.730 C 257.021 57.593,257.488 58.893,257.766 59.620 C 259.041 62.961,257.340 72.615,254.337 79.080 C 252.191 83.699,252.127 83.640,260.611 84.875 C 263.245 85.259,266.738 85.871,268.373 86.236 C 270.874 86.795,272.711 86.911,279.934 86.968 L 288.522 87.036 290.244 86.128 C 293.801 84.253,295.601 81.878,295.616 79.042 C 295.620 78.278,295.834 76.845,296.092 75.856 C 297.133 71.857,294.170 66.281,288.192 60.991 C 283.150 56.529,278.598 54.294,266.061 50.126 C 262.791 49.039,259.595 47.928,258.960 47.657 C 256.276 46.515,251.956 45.429,251.583 45.802 M155.739 50.657 C 151.644 51.989,150.057 53.343,148.136 57.143 C 146.263 60.850,146.067 61.296,145.827 62.415 C 145.692 63.043,145.326 64.158,145.013 64.892 C 144.699 65.626,144.337 66.821,144.207 67.547 C 144.076 68.274,143.682 69.813,143.331 70.968 C 141.553 76.809,143.619 82.666,148.967 86.940 C 153.585 90.631,153.711 90.669,161.354 90.669 L 167.960 90.669 169.676 89.718 C 175.667 86.398,178.695 80.726,178.695 72.823 C 178.695 70.017,177.464 63.555,176.606 61.858 C 176.351 61.354,175.887 60.159,175.574 59.203 C 173.470 52.765,163.056 48.279,155.739 50.657 M264.740 55.860 C 267.283 56.777,271.668 58.338,274.484 59.329 C 283.212 62.401,288.588 67.116,285.682 69.152 C 284.647 69.877,283.563 69.351,280.564 66.673 C 277.660 64.079,276.625 63.468,273.493 62.498 C 270.563 61.590,266.677 60.021,263.903 58.624 C 262.634 57.984,260.792 57.161,259.812 56.794 C 257.591 55.963,257.084 55.432,257.816 54.701 C 258.640 53.876,259.761 54.064,264.740 55.860 M164.043 57.322 C 172.414 61.388,172.022 72.668,163.336 77.658 C 155.315 82.266,147.897 70.277,153.127 61.157 C 155.882 56.353,159.460 55.096,164.043 57.322 M215.766 59.754 C 212.549 60.307,213.054 61.477,217.423 63.595 C 220.637 65.152,221.088 65.507,226.308 70.588 C 233.114 77.213,233.587 77.353,237.333 73.859 C 240.512 70.892,242.946 61.554,240.890 60.206 C 239.930 59.576,218.994 59.199,215.766 59.754 M157.446 61.987 C 156.952 62.481,157.276 63.456,158.051 63.809 C 158.989 64.236,159.136 65.256,158.401 66.246 C 158.001 66.785,157.830 66.821,157.327 66.472 C 155.812 65.418,155.381 65.334,154.143 65.851 C 151.653 66.892,153.109 69.592,155.978 69.252 L 157.603 69.059 158.387 70.832 C 159.630 73.642,161.470 74.391,163.736 73.009 C 168.641 70.019,166.959 62.341,161.539 62.982 C 160.041 63.160,159.772 63.098,159.336 62.476 C 158.854 61.788,157.893 61.540,157.446 61.987 M282.659 96.806 C 281.746 97.338,281.978 98.031,283.320 98.771 C 284.001 99.147,284.930 99.660,285.384 99.911 C 285.838 100.163,287.027 100.688,288.026 101.079 C 289.026 101.470,290.447 102.075,291.186 102.423 C 291.925 102.771,292.691 103.055,292.890 103.055 C 293.088 103.055,293.970 103.418,294.850 103.861 C 298.088 105.492,302.279 107.375,305.997 108.869 C 309.046 110.094,310.055 111.475,308.507 112.303 C 307.820 112.671,307.601 112.590,301.734 109.830 C 294.243 106.304,291.440 104.927,290.999 104.557 C 290.727 104.327,289.993 103.968,289.369 103.759 C 288.745 103.549,288.002 103.184,287.718 102.948 C 287.433 102.711,286.086 102.091,284.723 101.569 C 283.361 101.047,282.023 100.442,281.751 100.225 C 281.478 100.008,280.884 99.729,280.429 99.605 C 279.975 99.481,278.714 98.993,277.627 98.521 C 275.650 97.664,267.391 96.813,265.813 97.305 C 263.976 97.877,266.305 100.245,268.397 99.931 C 269.964 99.696,269.862 99.631,272.448 102.512 C 272.909 103.025,273.322 103.095,275.013 102.942 C 277.266 102.737,278.236 103.157,278.568 104.481 C 278.826 105.509,280.896 106.432,282.775 106.356 C 285.260 106.255,285.396 106.306,285.905 107.525 C 286.746 109.538,289.798 110.912,292.069 110.301 C 293.930 109.800,295.096 110.441,295.229 112.038 C 295.354 113.532,297.317 114.510,299.487 114.159 C 304.256 113.387,304.029 113.295,304.286 116.100 C 304.419 117.547,305.780 118.128,307.895 117.640 C 308.944 117.397,309.772 117.380,310.318 117.587 C 311.173 117.912,311.258 118.120,311.160 119.630 C 311.057 121.230,312.916 121.681,315.076 120.580 C 315.769 120.226,317.323 119.765,318.531 119.555 C 321.371 119.060,321.326 118.013,318.426 117.096 C 317.453 116.788,312.162 113.236,312.148 112.882 C 312.135 112.536,313.712 112.571,313.929 112.921 C 314.026 113.079,314.690 113.301,315.405 113.416 C 316.560 113.600,319.072 114.585,323.699 116.666 C 325.777 117.600,328.923 118.580,329.847 118.580 C 330.274 118.580,331.666 118.759,332.941 118.977 C 336.591 119.603,337.023 118.276,333.659 116.771 C 332.632 116.311,331.049 115.540,330.140 115.056 C 329.232 114.573,327.374 113.771,326.012 113.276 C 320.864 111.402,318.950 110.608,318.067 109.979 C 317.566 109.623,316.833 109.331,316.437 109.331 C 316.041 109.331,314.675 108.874,313.401 108.314 C 312.127 107.755,310.542 107.104,309.878 106.867 C 308.578 106.403,299.848 102.405,297.920 101.392 C 297.275 101.053,296.012 100.614,295.112 100.415 C 294.213 100.217,292.287 99.526,290.834 98.880 C 289.381 98.233,287.556 97.422,286.779 97.077 C 285.234 96.390,283.561 96.280,282.659 96.806 M224.360 96.998 C 224.084 97.110,223.947 97.948,223.946 99.532 C 223.944 102.350,223.210 107.054,222.520 108.671 C 222.248 109.306,221.778 110.793,221.476 111.974 C 220.818 114.543,215.817 124.849,213.259 128.907 C 209.858 134.303,204.033 140.382,197.203 145.665 C 187.942 152.828,188.258 152.154,192.995 154.628 C 200.451 158.521,207.165 160.260,208.975 158.768 C 210.304 157.673,211.012 157.487,212.272 157.903 C 213.086 158.171,213.679 158.168,214.521 157.890 C 218.291 156.646,224.569 167.108,225.964 176.959 C 226.303 179.356,225.789 194.155,225.250 197.523 C 225.060 198.704,224.769 200.767,224.603 202.108 C 224.436 203.450,224.150 205.010,223.967 205.577 C 223.783 206.143,223.415 208.390,223.148 210.570 C 222.881 212.750,222.448 215.054,222.186 215.690 C 221.924 216.325,221.604 217.514,221.476 218.332 C 221.348 219.149,220.494 221.379,219.579 223.287 C 218.663 225.194,217.573 227.513,217.158 228.440 C 213.807 235.910,206.412 245.322,201.740 248.064 C 200.420 248.839,198.929 249.755,198.427 250.101 C 196.219 251.618,191.431 253.675,190.115 253.670 C 189.375 253.667,187.803 253.957,186.623 254.313 C 185.442 254.669,183.250 255.332,181.751 255.786 C 180.252 256.240,177.502 256.928,175.640 257.315 C 173.778 257.702,171.278 258.304,170.084 258.654 C 167.336 259.459,166.721 259.451,164.492 258.579 C 155.612 255.104,148.261 263.724,155.725 268.859 C 159.196 271.247,161.987 271.150,164.208 268.562 C 165.899 266.591,167.640 264.199,168.251 263.009 C 168.984 261.580,170.441 260.905,175.557 259.625 C 177.919 259.034,180.520 258.283,181.338 257.956 C 182.155 257.628,184.422 256.889,186.374 256.313 C 188.326 255.737,191.076 254.782,192.485 254.190 C 193.893 253.598,195.808 252.863,196.740 252.555 C 197.673 252.248,199.159 251.482,200.042 250.853 C 202.811 248.885,205.450 250.216,205.450 253.580 C 205.450 254.502,198.978 265.290,197.049 267.582 C 196.582 268.137,195.582 269.657,194.826 270.959 C 192.550 274.882,190.754 276.945,188.630 278.077 C 181.424 281.918,181.477 290.369,188.709 290.331 C 193.972 290.304,197.893 285.191,196.326 280.399 C 195.164 276.849,195.283 276.570,202.222 266.557 C 212.072 252.342,217.787 250.607,218.956 261.475 C 219.134 263.131,219.810 266.234,220.457 268.370 C 221.105 270.507,221.635 272.539,221.635 272.885 C 221.635 273.231,221.868 274.067,222.153 274.742 C 222.437 275.418,222.818 277.308,222.998 278.943 C 223.179 280.578,223.541 282.755,223.802 283.780 C 224.701 287.306,224.486 288.821,222.835 290.600 C 219.143 294.578,219.271 298.144,223.228 301.619 C 226.230 304.254,232.759 299.451,233.129 294.336 C 233.333 291.523,232.635 290.280,229.853 288.496 C 226.695 286.472,226.561 286.189,226.059 280.491 C 225.825 277.823,225.485 275.045,225.304 274.319 C 225.123 273.592,224.588 270.768,224.114 268.043 C 223.640 265.318,223.110 262.345,222.936 261.437 C 222.761 260.528,222.376 258.419,222.079 256.748 L 221.539 253.711 222.617 250.398 C 223.261 248.419,224.404 245.917,225.455 244.186 C 230.157 236.443,232.445 232.058,233.517 228.735 C 233.751 228.009,234.050 227.267,234.181 227.085 C 234.313 226.903,235.116 224.971,235.968 222.791 C 236.819 220.611,237.818 218.084,238.189 217.176 C 238.560 216.268,239.290 213.864,239.812 211.835 C 240.334 209.807,240.994 207.590,241.278 206.911 C 241.562 206.231,241.949 204.621,242.139 203.333 C 242.329 202.045,242.684 200.322,242.927 199.505 C 243.170 198.687,243.537 196.235,243.743 194.055 C 243.949 191.874,244.434 188.827,244.821 187.283 C 245.576 184.275,245.852 182.497,246.411 177.044 C 246.606 175.136,246.935 172.557,247.142 171.313 C 247.543 168.896,247.418 168.108,246.138 164.988 C 245.766 164.079,245.280 162.844,245.060 162.242 C 244.839 161.640,243.474 159.856,242.026 158.278 C 240.577 156.700,238.239 153.997,236.829 152.271 C 232.454 146.918,227.198 142.318,221.718 139.048 C 220.538 138.345,220.273 137.135,221.140 136.416 C 223.118 134.774,233.549 142.620,239.677 150.358 C 240.726 151.682,242.710 153.988,244.086 155.482 C 247.100 158.754,248.636 161.203,249.380 163.920 C 250.125 166.642,250.693 167.008,255.136 167.625 C 262.172 168.602,262.840 168.449,263.586 165.692 C 264.151 163.605,266.364 160.688,269.009 158.542 C 270.605 157.247,271.252 156.461,271.684 155.295 C 271.997 154.449,272.663 153.088,273.163 152.271 C 274.015 150.880,275.157 147.507,275.590 145.108 C 275.695 144.529,275.568 143.241,275.308 142.244 C 275.049 141.248,274.610 138.919,274.333 137.069 C 273.852 133.849,272.160 128.446,270.777 125.713 C 270.419 125.004,269.928 123.890,269.687 123.236 C 267.176 116.425,262.433 108.787,259.455 106.755 C 258.157 105.869,253.891 104.496,250.372 103.831 C 246.808 103.157,236.953 100.679,234.352 99.802 C 231.294 98.772,224.981 96.776,224.871 96.806 C 224.817 96.820,224.587 96.907,224.360 96.998 M314.038 102.914 C 312.436 104.541,315.354 107.548,319.745 108.795 C 322.715 109.638,326.474 110.983,326.815 111.324 C 327.711 112.220,330.887 111.263,330.689 110.156 C 330.589 109.596,330.638 109.581,331.171 110.010 C 331.498 110.272,331.266 109.858,330.655 109.090 C 329.525 107.668,329.367 107.576,327.333 107.165 C 326.697 107.036,325.659 106.653,325.026 106.314 C 324.392 105.975,323.686 105.698,323.455 105.698 C 323.225 105.698,322.482 105.400,321.804 105.037 C 321.126 104.674,320.289 104.377,319.945 104.377 C 319.600 104.377,318.837 104.079,318.249 103.715 C 317.100 103.006,314.445 102.500,314.038 102.914 M281.090 114.295 C 281.090 114.730,282.756 118.044,284.574 121.222 C 286.705 124.951,288.592 130.026,289.020 133.183 C 289.224 134.689,289.536 136.766,289.712 137.799 C 290.192 140.609,289.254 147.782,288.072 150.340 C 286.995 152.667,286.475 152.597,301.734 152.191 C 316.124 151.808,316.052 151.805,326.837 153.411 C 336.464 154.844,338.246 155.430,338.887 157.370 C 340.053 160.905,336.380 161.601,332.394 158.600 C 328.533 155.692,314.470 154.950,291.329 156.434 C 283.352 156.945,281.654 157.190,276.829 158.526 C 268.925 160.714,266.335 165.794,269.438 173.023 C 270.790 176.173,274.455 180.457,277.041 181.911 L 278.333 182.637 279.545 181.987 C 281.726 180.818,282.879 181.075,288.475 183.977 C 291.274 185.428,295.381 187.355,297.602 188.260 C 299.823 189.164,302.702 190.509,303.999 191.250 C 310.250 194.817,315.044 196.711,323.265 198.860 C 325.384 199.414,327.212 199.926,327.328 199.997 C 327.444 200.069,328.880 200.343,330.519 200.607 C 335.846 201.464,338.133 203.276,337.771 206.353 C 337.596 207.837,337.693 208.349,338.394 209.667 C 340.304 213.255,339.277 214.232,329.810 217.828 C 328.538 218.311,326.383 219.212,325.021 219.830 C 323.658 220.447,321.882 221.184,321.073 221.468 C 319.357 222.069,318.613 222.674,317.566 224.322 C 317.147 224.982,315.345 227.193,313.563 229.235 C 309.567 233.814,307.175 236.725,304.054 240.810 C 301.652 243.955,300.449 245.144,298.279 246.518 C 296.128 247.881,295.846 251.677,297.875 251.966 C 299.550 252.204,301.338 250.026,301.900 247.062 C 302.156 245.715,302.553 244.973,303.648 243.799 C 304.427 242.963,305.684 241.456,306.441 240.451 C 307.198 239.445,308.979 237.707,310.400 236.588 C 311.820 235.470,315.016 232.469,317.503 229.920 C 322.164 225.144,322.837 224.703,324.876 225.085 C 327.151 225.512,327.898 227.169,326.792 229.331 C 325.748 231.372,313.331 246.605,310.301 249.563 C 306.521 253.253,305.659 255.890,308.113 256.256 C 310.376 256.593,312.217 254.704,312.943 251.301 C 313.047 250.813,314.589 248.732,316.371 246.676 C 318.152 244.621,320.567 241.534,321.737 239.815 C 323.758 236.847,331.805 227.836,332.763 227.469 C 333.011 227.373,334.076 226.208,335.131 224.878 C 339.399 219.495,347.630 210.711,350.568 208.403 C 352.620 206.791,358.010 200.409,358.998 198.421 C 359.559 197.291,360.617 195.411,361.347 194.242 C 363.628 190.595,363.146 189.371,358.980 188.239 C 352.455 186.465,352.971 182.130,359.678 182.377 L 362.839 182.494 363.086 180.677 C 363.412 178.281,363.098 173.984,362.316 170.137 C 361.969 168.428,361.682 166.347,361.678 165.513 C 361.663 162.042,359.789 154.382,358.074 150.784 C 357.555 149.694,356.807 148.073,356.413 147.181 C 353.954 141.617,338.531 126.727,335.227 126.727 C 334.723 126.727,333.770 127.140,333.108 127.644 C 332.166 128.363,331.252 128.658,328.876 129.007 C 327.210 129.252,324.806 129.625,323.534 129.835 C 317.858 130.775,314.159 130.088,307.275 126.817 C 305.380 125.917,302.614 124.676,301.130 124.061 C 298.502 122.972,294.305 120.790,288.133 117.304 C 283.582 114.734,281.090 113.669,281.090 114.295 M334.319 120.607 C 333.893 120.765,331.960 121.039,330.025 121.216 C 320.017 122.131,317.297 122.617,315.607 123.796 C 312.263 126.129,315.464 128.426,320.309 127.171 C 321.174 126.947,323.964 126.633,326.507 126.473 C 335.360 125.918,336.137 125.777,339.201 124.168 C 342.097 122.648,343.043 121.727,342.542 120.916 C 342.204 120.370,335.625 120.122,334.319 120.607 M296.781 236.014 C 294.125 238.593,293.575 238.897,290.253 239.633 C 286.529 240.457,285.196 242.617,287.186 244.606 C 288.734 246.155,290.787 245.476,292.036 243.000 C 292.876 241.335,295.035 238.746,297.929 235.935 C 299.213 234.687,299.856 233.856,299.536 233.856 C 299.243 233.856,298.003 234.827,296.781 236.014 " stroke="none" fill="#c7c8c4" fill-rule="evenodd"></path></g></svg>
